<svg width="1920" height="118" viewBox="0 0 1920 118" fill="none" xmlns="http://www.w3.org/2000/svg">
<path d="M1919.86 109.8H1920V0H0V89L1 90L0.84 89.76C8.26 93.34 15.62 96.93 23 100.41C23.9443 100.726 39.5557 82.8156 40.5 82.5C55.59 78.36 53.34 88.02 68.5 89.76C87.68 84.174 93 74.5 93 74.5C107.33 67.25 110.32 83.83 125 78C138.46 72.65 146.8 76.39 158.89 67.83C166.73 62.28 175.69 58.47 185.78 58.37C188.78 58.37 192.58 59.48 194.52 55.37C194.84 54.67 196.99 54.37 198.15 54.59C205.86 56.12 212.02 54.23 215.71 45.43C221.83 48.28 226.91 51.54 232.46 53.01C238.526 54.4732 244.764 55.1023 251 54.88C258.63 54.75 266.23 53.12 273.87 52.88C289.54 52.43 305.24 52.75 320.87 52.21C328.58 51.95 335.34 48.96 339.96 42.11C341.34 40.05 343.52 37.75 345.74 37.18C356.74 34.37 367.18 29.34 379.26 31.25C388.6 32.74 392.68 28.25 392.51 19.25C404.85 16.47 408.19 17.9 413.28 28.36C423.37 28.68 437.95 36.29 448 35.09C460.21 33.65 468 23.67 480.13 21.14C483.612 20.3939 487.202 20.2956 490.72 20.85C494.94 21.59 498.97 23.37 503.07 24.75C507.5 26.25 511.67 25.52 516.33 25.06C529.56 23.73 542.65 18.29 556.44 23.46C563.44 26.08 571.31 26.29 578.81 27.52C580.07 27.72 581.66 28.04 582.66 27.52C589.95 23.52 597.42 25.21 605.08 25.89C610.15 26.33 615.42 24.63 620.59 23.83C621.59 23.68 622.68 22.77 623.43 23.04C634.43 27.04 644.91 21.68 655.65 21.31C655.976 21.3635 656.288 21.4789 656.57 21.65C662.77 32.52 666.66 34.21 678.68 32.22C682.43 31.6 686.38 32.22 690.23 32.22C692.23 32.22 694.4 32.42 696.05 31.62C700.96 29.24 704.18 31.4 707.81 35.09L698.81 41.58C701.26 42.72 702.81 44.05 704.35 44.07C718.577 44.2033 727.267 50.5333 741.5 50.36C745.34 50.36 754.9 44.51 757.61 40.06C758.4 38.76 762.39 38.61 764.61 39.06C781.17 42.69 797.61 46.76 814.19 50.36C820.28 51.68 826.55 52.16 832.74 52.95C838.62 53.7 844.74 53.53 849.33 58.42C849.724 58.7279 850.181 58.9457 850.668 59.058C851.155 59.1703 851.661 59.1744 852.15 59.07C864.36 56.07 875.28 63.44 887.2 63.36C894.4 63.36 903.28 43.32 910.5 44.07C922.34 45.29 931.5 64.94 941.44 57.69C953.51 48.9 965.53 40.21 976.19 29.59C980 25.84 986 24.38 991 22C995.5 19.87 999.94 17.48 1004.66 16C1007.97 15 1011.99 14.32 1015.16 15.27C1020.16 16.77 1023.55 16.39 1025.85 11.47C1028.25 6.33 1033.44 4.98 1038.05 3.64C1040.26 2.99 1045.63 5.26 1045.62 6.17C1045.56 12.24 1052.77 12.17 1053.87 16.92C1054 17.46 1054.59 18.33 1054.96 18.32C1060.61 18.32 1066.32 18.61 1071.87 17.79C1075.1 17.31 1078.06 14.95 1081.15 13.43C1081.02 12.6 1080.9 11.76 1080.78 10.93C1078.48 10.59 1076.2 10.13 1073.89 9.93C1071.58 9.73 1069.46 9.93 1066.78 9.93C1067.67 4.93 1070.24 3.63 1074.06 4.45C1078.27 5.36 1083.06 5.6 1086.5 7.79C1094.62 12.89 1103.28 12.86 1112.18 12.5C1118.75 12.24 1123.36 14.75 1128.57 19.37C1137.99 27.73 1147.64 37.03 1161.57 37.83C1163.8 37.96 1166.1 37.15 1168.33 37.28C1170.85 37.42 1174.16 37.28 1175.68 38.75C1180.68 43.6 1186.93 43.86 1193.14 44.55L1223.92 47.94C1225.25 48.0225 1226.56 48.2505 1227.84 48.62C1236.08 51.49 1236.07 51.51 1242.4 50.37C1244.88 55.19 1249 56.37 1254.56 55.22C1259.12 54.3417 1263.79 54.1061 1268.42 54.52C1275.6 55.08 1282.04 54.17 1288.53 50.47C1294.53 47.06 1301.33 50.47 1307.77 50.62C1314.95 50.76 1322.77 50.62 1329.12 53.35C1343.63 59.76 1358.95 53.19 1373.28 57.73C1382 60.48 1391 59 1399.56 60C1411.56 61.35 1422.84 55.37 1434.85 58.5C1438.33 59.41 1442.96 56.5 1446.91 54.9C1453.91 52.12 1459.24 54.64 1461.91 63.08C1474.79 59.99 1488.79 62.46 1501.05 55C1502.98 53.82 1505.48 52.7 1507.59 52.89C1513.08 53.39 1516.08 50.23 1518.59 46.04C1523.78 47.37 1528.54 48.66 1533.33 49.8C1543.77 52.28 1546.44 50.26 1546.71 38.56C1551.38 45.15 1557.15 48.87 1563.12 52.68C1570.5 57.38 1577.05 59.09 1585 54.57C1588.3 52.69 1592.38 52.2 1596.91 50.83L1594.49 46C1595.04 45.7704 1595.61 45.5701 1596.18 45.4C1596.52 45.3444 1596.87 45.4005 1597.18 45.56C1609.94 51.73 1624.24 50.56 1637.57 54.04C1640.38 54.76 1643.12 55.74 1645.87 56.68C1653.67 59.35 1661.71 61.51 1669.19 64.9C1679.4 69.53 1690.68 68.02 1701.08 71.48C1704.98 72.78 1709.64 72 1713.94 71.87C1733.89 71.24 1753.84 70.5 1773.8 69.87C1775.8 69.8 1778.14 69.48 1779.67 70.38C1789.96 76.45 1801.56 74.64 1812.57 76.32C1818.97 77.32 1825.27 78.97 1832.4 80.5C1835.53 86.5 1839.56 93.04 1842.19 100.07C1843.12 102.58 1840.62 106.36 1839.59 109.91C1847.96 112.5 1856.45 116.85 1866.75 114.83C1870.75 114.06 1875.45 118.2 1879.75 117.93C1884.05 117.66 1887.81 113.81 1892.09 113.04C1900.8 111.48 1909.68 110.93 1919.91 109.81L1919.86 109.8Z" fill="#F4F6F9"/>
</svg>
