<svg width="1920" height="35" viewBox="0 0 1920 35" fill="none" xmlns="http://www.w3.org/2000/svg">
<g clip-path="url(#clip0_2628_6)">
<path d="M1919.88 0.799999C1915.61 0.579999 1912.1 0.259999 1908.6 0.259999C1874.6 0.219999 1840.6 0.219999 1806.6 0.259999C1796.3 0.306835 1786.19 3.06602 1777.29 8.26C1771.05 11.83 1765.17 14.7 1757.58 11.57C1754.49 10.31 1750.38 11.63 1746.74 11.57C1732.41 11.43 1718.08 11.25 1703.74 11.03C1702.08 11.03 1700.11 11.43 1698.8 10.71C1682.91 2.03 1666.8 6.71 1650.51 9.15C1644.11 10.15 1637.51 9.21 1630.94 9.52C1624.69 9.83 1618.13 9.52 1612.32 11.41C1602.74 14.5 1592.32 15.35 1583.88 22.03C1581.06 24.26 1576.55 25.1 1572.76 25.25C1550.39 26.11 1528 25.77 1505.64 24.8C1497.8 24.46 1490.02 22.54 1482.11 21.32C1481.66 23.32 1481.32 24.86 1480.82 27.05L1458.99 19.78C1458.36 19.57 1457.36 19.53 1457.15 19.11C1452.27 9.01 1446.03 14.11 1440.39 17.87C1428.6 25.77 1415.65 28.54 1401.71 27.58C1391.45 26.87 1381.19 26.07 1370.93 25.33C1366.18 24.98 1361.42 24.67 1357.78 24.43L1374.09 23.2C1371.02 18.2 1367.4 19.2 1364.37 19.2C1350.14 19.2 1335.96 18.09 1321.65 18.99C1304.1 20.1 1286.44 19.25 1268.83 19.46C1264.53 19.51 1260.25 20.51 1255.94 20.81C1250.8 21.2488 1245.64 21.1483 1240.52 20.51C1230.74 27.33 1219.25 29.13 1207.52 29.8C1204.79 29.96 1201.97 28.57 1199.2 27.85C1198.91 27.77 1198.68 27.44 1198.44 27.21C1194.2 23.06 1188.69 23.93 1183.51 22.99C1179.02 22.18 1175.07 18.75 1170.6 17.45C1167.53 16.56 1163.96 17.1 1160.67 17.45C1148.51 18.66 1136.37 20.05 1123.21 21.45L1128.07 25.39C1121.16 24.87 1114.92 25.5 1109.43 23.77C1094.94 19.2 1080.43 21.56 1065.87 22.05C1058.87 22.28 1051.87 23.26 1044.87 23.11C1039.71 22.99 1034.58 21.53 1029.42 20.78C1027.14 20.4007 1024.84 20.24 1022.53 20.3C995.917 21.7533 969.31 23.2433 942.71 24.77C937.8 25.05 933.45 24.68 928.53 22.28C922.53 19.36 915.05 19.44 907.6 18.12L904.34 11.3C902.88 11.94 901.73 12.08 901.22 12.73C899.479 15.0149 897.135 16.7691 894.451 17.7954C891.768 18.8217 888.852 19.0796 886.03 18.54C876.37 16.74 867.85 20.38 857.64 21.66L861.56 24.77C848.56 24.05 836.01 23.24 823.48 22.68C816 22.35 808.48 20.51 801.7 26.59C798.07 29.85 795.58 25.59 793.93 21.73L780.93 27.91C781.17 25.16 781.29 23.85 781.5 21.53H713.93C713.93 21.03 713.93 20.53 713.93 20.04L728.37 17.39C724.88 15.52 723.44 14.12 721.94 14.04C714.64 13.69 707.31 13.42 700.01 13.65C692.09 13.9 684.19 14.83 676.28 15.27C673.63 15.42 670.75 15.59 668.28 14.73C648.6 7.73 628.67 11.6 608.74 12.8C589.8 13.94 570.83 14.53 551.86 15.22C532 16 512 16.78 492.1 17C473.49 17.22 454.86 16.75 436.24 16.58C434.61 16.58 432.89 16.18 431.35 16.53C412.83 20.71 393.97 20.36 375.17 21.3C363.28 21.9 351.48 24.5 339.65 26.3C338.04 26.54 336.41 27.67 334.89 27.48C327.09 26.54 319.34 24.68 311.52 24.34C303.923 24.1694 296.326 24.6444 288.81 25.76C273.96 27.68 259.2 30.23 244.36 32.18C238.17 33 231.87 32.96 224.22 33.38L232.22 23.56C228.63 22.79 226.3 21.69 224.11 21.93C212.88 23.15 201.71 25.19 190.75 20.26C189.45 19.68 187.48 20.39 185.86 20.73C180.67 21.84 177.35 20.21 174.39 15.43C170.39 8.94 164.39 6.93 156.97 9.96C145.9 14.46 137.24 11.96 129.33 3.64C127.472 1.75316 124.975 0.629561 122.33 0.489999C98.12 0.839999 73.71 -2 49.62 2.92C42.84 4.29 36.31 6.92 29.62 8.79C18.76 11.85 18.55 11.68 15.05 0.789999H0.88V0.469999H0V34.47H1920V0.469999L1919.88 0.799999Z" fill="#FBD9DA"/>
</g>
<defs>
<clipPath id="clip0_2628_6">
<rect width="1920" height="34.47" fill="white"/>
</clipPath>
</defs>
</svg>
