<svg width="1920" height="35" viewBox="0 0 1920 35" fill="none" xmlns="http://www.w3.org/2000/svg">
<g clip-path="url(#clip0_53_2)">
<path d="M1919.88 0.80012C1915.61 0.58012 1912.1 0.26012 1908.6 0.26012C1874.6 0.22012 1840.6 0.22012 1806.6 0.26012C1796.3 0.306956 1786.19 3.06614 1777.29 8.26012C1771.05 11.8301 1765.17 14.7001 1757.58 11.5701C1754.49 10.3101 1750.38 11.6301 1746.74 11.5701C1732.41 11.4301 1718.08 11.2501 1703.74 11.0301C1702.08 11.0301 1700.11 11.4301 1698.8 10.7101C1682.91 2.03012 1666.8 6.71012 1650.51 9.15012C1644.11 10.1501 1637.51 9.21012 1630.94 9.52012C1624.69 9.83012 1618.13 9.52012 1612.32 11.4101C1602.74 14.5001 1592.32 15.3501 1583.88 22.0301C1581.06 24.2601 1576.55 25.1001 1572.76 25.2501C1550.39 26.1101 1528 25.7701 1505.64 24.8001C1497.8 24.4601 1490.02 22.5401 1482.11 21.3201C1481.66 23.3201 1481.32 24.8601 1480.82 27.0501L1458.99 19.7801C1458.36 19.5701 1457.36 19.5301 1457.15 19.1101C1452.27 9.01012 1446.03 14.1101 1440.39 17.8701C1428.6 25.7701 1415.65 28.5401 1401.71 27.5801C1391.45 26.8701 1381.19 26.0701 1370.93 25.3301C1366.18 24.9801 1361.42 24.6701 1357.78 24.4301L1374.09 23.2001C1371.02 18.2001 1367.4 19.2001 1364.37 19.2001C1350.14 19.2001 1335.96 18.0901 1321.65 18.9901C1304.1 20.1001 1286.44 19.2501 1268.83 19.4601C1264.53 19.5101 1260.25 20.5101 1255.94 20.8101C1250.8 21.2489 1245.64 21.1484 1240.52 20.5101C1230.74 27.3301 1219.25 29.1301 1207.52 29.8001C1204.79 29.9601 1201.97 28.5701 1199.2 27.8501C1198.91 27.7701 1198.68 27.4401 1198.44 27.2101C1194.2 23.0601 1188.69 23.9301 1183.51 22.9901C1179.02 22.1801 1175.07 18.7501 1170.6 17.4501C1167.53 16.5601 1163.96 17.1001 1160.67 17.4501C1148.51 18.6601 1136.37 20.0501 1123.21 21.4501L1128.07 25.3901C1121.16 24.8701 1114.92 25.5001 1109.43 23.7701C1094.94 19.2001 1080.43 21.5601 1065.87 22.0501C1058.87 22.2801 1051.87 23.2601 1044.87 23.1101C1039.71 22.9901 1034.58 21.5301 1029.42 20.7801C1027.14 20.4008 1024.84 20.2401 1022.53 20.3001C995.917 21.7534 969.31 23.2434 942.71 24.7701C937.8 25.0501 933.45 24.6801 928.53 22.2801C922.53 19.3601 915.05 19.4401 907.6 18.1201L904.34 11.3001C902.88 11.9401 901.73 12.0801 901.22 12.7301C899.479 15.015 897.135 16.7692 894.451 17.7955C891.768 18.8218 888.852 19.0797 886.03 18.5401C876.37 16.7401 867.85 20.3801 857.64 21.6601L861.56 24.7701C848.56 24.0501 836.01 23.2401 823.48 22.6801C816 22.3501 808.48 20.5101 801.7 26.5901C798.07 29.8501 795.58 25.5901 793.93 21.7301L780.93 27.9101C781.17 25.1601 781.29 23.8501 781.5 21.5301H713.93C713.93 21.0301 713.93 20.5301 713.93 20.0401L728.37 17.3901C724.88 15.5201 723.44 14.1201 721.94 14.0401C714.64 13.6901 707.31 13.4201 700.01 13.6501C692.09 13.9001 684.19 14.8301 676.28 15.2701C673.63 15.4201 670.75 15.5901 668.28 14.7301C648.6 7.73012 628.67 11.6001 608.74 12.8001C589.8 13.9401 570.83 14.5301 551.86 15.2201C532 16.0001 512 16.7801 492.1 17.0001C473.49 17.2201 454.86 16.7501 436.24 16.5801C434.61 16.5801 432.89 16.1801 431.35 16.5301C412.83 20.7101 393.97 20.3601 375.17 21.3001C363.28 21.9001 351.48 24.5001 339.65 26.3001C338.04 26.5401 336.41 27.6701 334.89 27.4801C327.09 26.5401 319.34 24.6801 311.52 24.3401C303.923 24.1695 296.326 24.6445 288.81 25.7601C273.96 27.6801 259.2 30.2301 244.36 32.1801C238.17 33.0001 231.87 32.9601 224.22 33.3801L232.22 23.5601C228.63 22.7901 226.3 21.6901 224.11 21.9301C212.88 23.1501 201.71 25.1901 190.75 20.2601C189.45 19.6801 187.48 20.3901 185.86 20.7301C180.67 21.8401 177.35 20.2101 174.39 15.4301C170.39 8.94012 164.39 6.93012 156.97 9.96012C145.9 14.4601 137.24 11.9601 129.33 3.64012C127.472 1.75328 124.975 0.629682 122.33 0.49012C98.12 0.84012 73.71 -1.99988 49.62 2.92012C42.84 4.29012 36.31 6.92012 29.62 8.79012C18.76 11.8501 18.55 11.6801 15.05 0.79012H0.88V0.47012H0V34.4701H1920V0.47012L1919.88 0.80012Z" fill="white"/>
</g>
<defs>
<clipPath id="clip0_53_2">
<rect width="1920" height="35" fill="white"/>
</clipPath>
</defs>
</svg>
